<?xml version="1.0" standalone="no"?>
<!DOCTYPE svg PUBLIC "-//W3C//DTD SVG 20010904//EN"
 "http://www.w3.org/TR/2001/REC-SVG-20010904/DTD/svg10.dtd">
<svg version="1.0" xmlns="http://www.w3.org/2000/svg"
 width="980.000000pt" height="980.000000pt" viewBox="0 0 980.000000 980.000000"
 preserveAspectRatio="xMidYMid meet">

<g transform="translate(0.000000,980.000000) scale(0.100000,-0.100000)"
fill="#000000" stroke="none">
<path d="M4240 7504 c-500 -12 -1566 -57 -1770 -75 -708 -61 -1031 -312 -1159
-901 -59 -275 -95 -942 -96 -1788 0 -632 6 -774 51 -1130 66 -527 144 -747
327 -916 244 -227 572 -314 1287 -344 135 -5 337 -15 450 -20 955 -47 2088
-51 2930 -10 107 5 353 17 545 25 478 21 672 41 890 92 222 52 368 125 509
254 146 133 239 337 290 636 25 145 64 467 78 648 22 290 17 1282 -10 1785
-26 479 -34 569 -68 740 -67 336 -200 566 -410 711 -121 83 -316 154 -519 189
-188 32 -462 48 -1515 90 -253 10 -1551 20 -1810 14z m861 -2051 c517 -301
939 -549 938 -552 0 -5 -1857 -1090 -1881 -1099 -4 -2 -8 492 -8 1097 0 606 3
1101 6 1101 4 0 429 -246 945 -547z"/>
</g>
</svg>
